<svg xmlns="http://www.w3.org/2000/svg" viewBox="0 0 640 640">
  <path d="M622.376 63.826c-11.964 4.208-602.424 212.297-614.075 216.401-9.877 3.478-12.068 11.999-0.348 16.66 13.947 5.599 132.024 52.9 132.024 52.9v0l78.255 31.337c0 0 376.946-276.779 382.023-280.535 5.148-3.756 11.060 3.304 7.338 7.338-3.721 4.069-273.753 296.082-273.753 296.082v0.069l-15.72 17.494 20.833 11.199c0 0 161.727 87.089 173.274 93.279 10.121 5.426 23.233 0.939 26.154-11.617 3.443-14.816 98.949-426.437 101.071-435.619 2.748-11.93-5.147-19.198-17.077-14.99zM217.537 569.109c0 8.556 4.834 10.956 11.512 4.904 8.729-7.965 99.123-89.071 99.123-89.071l-110.635-57.178v141.346z"></path>
</svg>