<svg aria-hidden="true" xmlns="http://www.w3.org/2000/svg" viewBox="0 0 282.92 347.57">
  <ellipse cx="141.47" cy="142.19" rx="21.68" ry="16.26" />
  <path
    d="M261 249.36C239.9 239 240.7 212.8 243.48 187c2.68-24.9 3-38.94-3.65-61-5.74-19.18-16.36-29.94-16.36-50.59v-50c0-18.82-8.8-25.41-16.35-25.41-24.69 0-32.82 42.57-65.5 42.57h-.3C108.65 42.57 100.51 0 75.82 0c-7.55 0-16.35 6.59-16.35 25.36v50c0 20.65-10.62 31.41-16.36 50.59-6.62 22.11-6.42 36.15-3.74 61C42.15 212.8 43 239 21.94 249.36c-16.45 8.07-27 21.71-19.45 33.37 9.54 14.71 27.45-2.14 36.17-.39 9.94 2-.54 15.29 13.93 15.29 7.55 0 9.49-23.05 16.68-21.25 4.76 1.19 6 15.49 1.19 26.62-2.14 5-21.48 17.28-19.07 29.86s12.71 14.71 27.45 14.71h38.51c9.63 0 18.7-9.38 18.7-15.4s-8.37-19.6 5.27-19.6h.3c13.65 0 5.27 13.58 5.27 19.6s9.07 15.4 18.71 15.4h38.51c14.73 0 25-2.13 27.45-14.71s-16.93-24.63-19.07-29.63c-4.77-11.13-3.58-25.55 1.19-26.74 7.18-1.79 9.12 21.2 16.67 21.2 14.47 0 4-13.34 13.92-15.32 8.72-1.75 26.62 15.08 36.16.38 7.57-11.66-3.03-25.32-19.43-33.39zm-66.53-146.92a9.64 9.64 0 1 1-9.64 9.64 9.65 9.65 0 0 1 9.64-9.64zm-106 0a9.64 9.64 0 1 1-9.64 9.64 9.64 9.64 0 0 1 9.65-9.64zm53 196.93a44 44 0 1 1 44-44 44 44 0 0 1-44 44zM177 192.18c-16.87 0-22.29-18.67-35.54-18.67s-18.67 18.67-35.53 18.67-30.11-7.83-30.11-28.91c0-26.5 37.94-43.36 65.64-43.36s65.65 16.86 65.65 43.36c.01 21.08-13.24 28.91-30.11 28.91z" />
</svg>