<svg aria-hidden="true" xmlns="http://www.w3.org/2000/svg" viewBox="0 0 2450.05 1023.918">
  <path
    d="M2046.385,507.035c-153.888,0-301.228-62.21-409.277-172.13-106.646,111.323-254.921,173.533-409.277,172.13-.936-.009-1.87-.03-2.806-.043-.936.013-1.87.034-2.806.043-154.356,1.403-302.631-60.807-409.277-172.13-108.049,109.92-255.389,172.13-409.277,172.13-152.017-1.403-297.487-63.146-403.665-172.13v166.05c108.517,109.453,255.389,173.533,409.277,178.211,154.356,1.403,302.631-60.807,409.277-172.13,107.855,108.32,254.062,169.962,406.471,172.087,152.409-2.125,298.616-63.767,406.471-172.087,106.646,111.323,254.921,173.533,409.277,172.13,153.888-4.678,300.76-68.758,409.277-178.211v-166.05c-106.178,108.984-251.648,170.727-403.665,172.13Z"
    style="fill: #171c61; stroke-width: 0px;" />
  <path
    d="M2046.385,851.764c-153.888,0-301.228-62.21-409.277-172.13-106.646,111.323-254.921,173.533-409.277,172.13-.936-.009-1.87-.03-2.806-.043-.936.013-1.87.034-2.806.043-154.356,1.403-302.631-60.807-409.277-172.13-108.049,109.92-255.389,172.13-409.277,172.13-152.017-1.403-297.487-63.146-403.665-172.13v166.05c108.517,109.453,255.389,173.533,409.277,178.211,154.356,1.403,302.631-60.807,409.277-172.13,107.855,108.32,254.062,169.962,406.471,172.087,152.409-2.125,298.616-63.767,406.471-172.087,106.646,111.323,254.921,173.533,409.277,172.13,153.888-4.678,300.76-68.758,409.277-178.211v-166.05c-106.178,108.984-251.648,170.727-403.665,172.13Z"
    style="fill: #171c61; stroke-width: 0px;" />
  <path
    d="M2046.385,172.13c-153.888,0-301.228-62.21-409.277-172.13-106.646,111.323-254.921,173.533-409.277,172.13-.936-.009-1.87-.03-2.806-.043-.936.013-1.87.034-2.806.043-154.356,1.403-302.631-60.807-409.277-172.13-108.049,109.92-255.389,172.13-409.277,172.13C251.648,170.727,106.178,108.984,0,0v166.05c108.517,109.453,255.389,173.533,409.277,178.211,154.356,1.403,302.631-60.807,409.277-172.13,107.855,108.32,254.062,169.962,406.471,172.087,152.409-2.125,298.616-63.767,406.471-172.087,106.646,111.323,254.921,173.533,409.277,172.13,153.888-4.678,300.76-68.758,409.277-178.211V0c-106.178,108.984-251.648,170.727-403.665,172.13Z"
    style="fill: #171c61; stroke-width: 0px;" />
</svg>