<svg width="574" height="157" viewBox="0 0 574 157" fill="none" xmlns="http://www.w3.org/2000/svg">
<path fill-rule="evenodd" clip-rule="evenodd" d="M26.9546 14.2293C26.9546 6.6074 33.0797 0.416109 40.6761 0.309082C18.1824 0.4784 0 18.7654 0 41.2991V132.415C0 145.993 11.0071 157 24.585 157C36.0139 157 45.6213 149.201 48.3762 138.635H47.9854C40.2967 138.635 34.0638 132.402 34.0638 124.714C34.0638 117.025 40.2967 110.792 47.9854 110.792H49.1699V110.792H68.8681C76.475 110.792 82.6416 104.625 82.6416 97.0184C82.6416 89.4115 76.4749 83.2449 68.868 83.2449H47.4386C39.8789 83.1898 33.7676 77.0445 33.7676 69.4718C33.7676 61.8649 39.9342 55.6983 47.5411 55.6983H49.1699V55.6981H58.5009C66.1078 55.6981 72.2744 49.5315 72.2744 41.9246C72.2744 34.3177 66.1078 28.1511 58.5009 28.1511H49.1699V28.1509H40.8762C33.1876 28.1509 26.9546 21.918 26.9546 14.2293Z" fill="#FFD100"/>
<path fill-rule="evenodd" clip-rule="evenodd" d="M40.8769 0.307617C33.1882 0.307617 26.9553 6.54053 26.9553 14.2292C26.9553 21.9179 33.1882 28.1508 40.8769 28.1508H48.2815V28.151H51.0746C58.6815 28.151 64.8481 34.3176 64.8481 41.9245C64.8481 49.4867 58.7537 55.6255 51.2084 55.6973H47.5419C39.935 55.6973 33.7684 61.8639 33.7684 69.4708C33.7684 77.0777 39.935 83.2443 47.5419 83.2443H48.2815V83.2445H67.979H68.8677C76.4745 83.2445 82.6412 89.4111 82.6412 97.018C82.6412 104.625 76.4746 110.792 68.8677 110.792H67.979H48.2815V110.792H47.9861C40.2975 110.792 34.0645 117.025 34.0645 124.713C34.0645 132.402 40.2975 138.635 47.9861 138.635L48.2815 138.635H68.2753C106.473 138.635 137.439 107.669 137.439 69.4713C137.439 31.2733 106.473 0.307617 68.2753 0.307617H65.7581H48.2815H40.8769Z" fill="#00B8C4"/>
<path d="M175.474 122.973C173.992 122.973 173.25 122.185 173.25 120.608L173.25 31.2871C173.25 29.7102 173.992 28.9218 175.474 28.9218H208.092C220.448 28.9218 229.788 32.0262 236.114 38.2352C242.44 44.3456 245.603 52.6735 245.603 63.2189C245.603 73.7643 242.44 82.1415 236.114 88.3504C229.788 94.4608 220.448 97.516 208.092 97.516H199.048L199.048 120.608C199.048 122.185 198.258 122.973 196.676 122.973H175.474ZM199.048 74.7498H207.499C216.494 74.7498 220.991 70.9062 220.991 63.2189C220.991 55.5316 216.494 51.688 207.499 51.688H199.048V74.7498Z" fill="white"/>
<path d="M285.527 124.606C275.642 124.606 267.537 121.009 261.211 113.815C254.885 106.521 251.723 97.4544 251.723 86.6134C251.723 75.8709 254.885 66.8531 261.211 59.56C267.537 52.267 275.642 48.6204 285.527 48.6204C295.213 48.6204 302.478 51.9713 307.321 58.673L307.618 52.7598C307.618 51.1829 308.408 50.3944 309.99 50.3944H328.375C329.956 50.3944 330.747 51.1829 330.747 52.7598V120.467C330.747 121.157 330.5 121.748 330.006 122.241C329.511 122.635 328.918 122.832 328.226 122.832H309.99C308.408 122.832 307.618 122.044 307.618 120.467L307.321 114.406C302.083 121.206 294.818 124.606 285.527 124.606ZM280.337 97.8487C283.204 100.707 286.812 102.136 291.161 102.136C295.51 102.136 299.068 100.707 301.835 97.8487C304.603 94.9906 305.987 91.1962 305.987 86.4656C305.987 81.8335 304.603 78.1377 301.835 75.3781C299.167 72.52 295.608 71.091 291.161 71.091C286.812 71.091 283.204 72.52 280.337 75.3781C277.471 78.2362 276.038 81.9813 276.038 86.6134C276.038 91.2455 277.471 94.9906 280.337 97.8487Z" fill="white"/>
<path d="M361.186 150.921C359.011 150.921 358.369 150.034 359.259 148.26L369.933 122.832L341.763 52.9076C341.17 51.2322 341.813 50.3944 343.691 50.3944H364.299C365.683 50.3944 366.622 50.9858 367.116 52.1684L381.943 93.8572L396.917 52.1684C397.313 50.9858 398.252 50.3944 399.734 50.3944H420.343C422.122 50.3944 422.715 51.2322 422.122 52.9076L383.722 149.147C383.228 150.329 382.289 150.921 380.905 150.921H361.186Z" fill="white"/>
<path d="M442.736 122.832C441.253 122.832 440.512 122.044 440.512 120.467V21.7149C440.512 20.1381 441.253 19.3496 442.736 19.3496H463.937C465.519 19.3496 466.31 20.1381 466.31 21.7149V120.467C466.31 122.044 465.519 122.832 463.937 122.832H442.736Z" fill="white"/>
<path d="M485.97 122.832C484.487 122.832 483.746 122.044 483.746 120.467V21.7149C483.746 20.1381 484.487 19.3496 485.97 19.3496H520.07C536.577 19.3496 549.525 24.2281 558.915 33.985C568.305 43.742 573 56.1106 573 71.091C573 86.0713 568.305 98.44 558.915 108.197C549.525 117.954 536.577 122.832 520.07 122.832H485.97ZM509.543 100.066H519.625C528.521 100.066 535.292 97.6023 539.937 92.6745C544.583 87.7468 546.906 80.5523 546.906 71.091C546.906 61.6297 544.583 54.4352 539.937 49.5074C535.292 44.5797 528.521 42.1158 519.625 42.1158H509.543V100.066Z" fill="white"/>
</svg>
