<svg width="300" height="35" viewBox="0 0 300 35" fill="none" xmlns="http://www.w3.org/2000/svg">
<path fill-rule="evenodd" clip-rule="evenodd" d="M10.7184 30.9115C9.89535 30.9115 9.09969 30.5823 8.52353 29.997C7.93822 29.4117 7.60898 28.6252 7.60898 27.8021C7.60898 26.979 7.93822 26.1833 8.52353 25.6072C9.10883 25.0219 9.89535 24.6926 10.7184 24.6926H15.3826C16.1965 24.6926 16.9647 24.3543 17.5409 23.7781C18.1079 23.2019 18.428 22.4246 18.428 21.6106C18.428 20.7967 18.1079 20.0193 17.5409 19.4432C16.9739 18.867 16.1965 18.5378 15.3826 18.5286H10.6178C9.80389 18.5286 9.03568 18.1902 8.45951 17.6141C7.8925 17.0379 7.57241 16.2606 7.57241 15.4466C7.57241 14.6327 7.8925 13.8553 8.45951 13.2791C9.02653 12.703 9.80389 12.3738 10.6178 12.3646H11.4318C11.8342 12.3646 12.2366 12.2823 12.6115 12.1268C12.9865 11.9714 13.3249 11.7427 13.6084 11.4592C13.8919 11.1757 14.1205 10.8282 14.2668 10.4624C14.4223 10.0874 14.4955 9.685 14.4955 9.2826C14.4955 8.8802 14.4132 8.4778 14.2577 8.10284C14.1022 7.72788 13.8736 7.3895 13.5901 7.10599C13.3066 6.82248 12.9591 6.59385 12.5932 6.44752C12.2183 6.29205 11.8159 6.21889 11.4135 6.21889H9.13627C8.31318 6.21889 7.51753 5.88965 6.94137 5.30434C6.35606 4.71904 6.02683 3.93253 6.02683 3.10944C6.02683 2.28635 6.35606 1.4907 6.94137 0.914542C7.52668 0.329235 8.31318 0 9.13627 0H9.09055C6.67616 0.0182908 4.36236 0.987705 2.66131 2.70704C0.960258 4.41724 0.00914542 6.74017 0 9.15457V29.5031C0 30.8384 0.484707 32.1279 1.37181 33.1339C2.24977 34.1398 3.46611 34.78 4.79219 34.9538C6.11828 35.1276 7.45352 34.8075 8.56011 34.0575C9.66671 33.3076 10.4624 32.1827 10.8007 30.8932H10.7093L10.7184 30.9115Z" fill="#FFD100"/>
<path fill-rule="evenodd" clip-rule="evenodd" d="M9.12734 0.0182343C8.30425 0.0182343 7.50861 0.347469 6.93244 0.932776C6.34714 1.51808 6.0179 2.30459 6.0179 3.12768C6.0179 3.95076 6.34714 4.74642 6.93244 5.32258C7.51775 5.90788 8.30425 6.23712 9.12734 6.23712H11.4046C12.2185 6.23712 13.005 6.55721 13.5812 7.12422C14.1573 7.69124 14.4866 8.47775 14.4957 9.29169C14.4957 10.1056 14.1756 10.8921 13.6086 11.4683C13.0324 12.0445 12.2551 12.3737 11.4411 12.3828H10.6272C9.81325 12.3828 9.04503 12.7212 8.46887 13.2974C7.90185 13.8735 7.58176 14.6509 7.58176 15.4648C7.58176 16.2788 7.90185 17.0562 8.46887 17.6323C9.03588 18.2085 9.81325 18.5377 10.6272 18.5469H15.392C16.2059 18.5469 16.9741 18.8852 17.5503 19.4614C18.1173 20.0376 18.4374 20.8149 18.4374 21.6289C18.4374 22.4428 18.1173 23.2202 17.5503 23.7963C16.9833 24.3725 16.2059 24.7017 15.392 24.7109H10.7278C9.9047 24.7109 9.10905 25.0401 8.53289 25.6254C7.94759 26.2107 7.61835 26.9972 7.61835 27.8203C7.61835 28.6434 7.94759 29.439 8.53289 30.0152C9.1182 30.6005 9.9047 30.9298 10.7278 30.9298H15.2548C17.2851 30.9298 19.2879 30.5274 21.1627 29.75C23.0375 28.9726 24.7386 27.8386 26.1744 26.4028C27.6102 24.9669 28.7443 23.2659 29.5216 21.3911C30.299 19.5163 30.7014 17.5043 30.7014 15.4831C30.7014 13.462 30.299 11.45 29.5216 9.5752C28.7443 7.70039 27.6102 5.99934 26.1744 4.56351C24.7386 3.12768 23.0375 1.99364 21.1627 1.21628C19.2879 0.420633 17.2759 0.0182343 15.2456 0.0182343H9.12734Z" fill="#00B8C3"/>
<path d="M39.1887 27.418C38.8594 27.418 38.6948 27.2442 38.6948 26.8876V6.9414C38.6948 6.58473 38.8594 6.41096 39.1887 6.41096H46.4776C49.2395 6.41096 51.3246 7.10602 52.733 8.48698C54.1414 9.84964 54.8548 11.7153 54.8548 14.0657C54.8548 16.4161 54.1506 18.2909 52.733 19.681C51.3246 21.0436 49.2303 21.7295 46.4776 21.7295H44.4564V26.8876C44.4564 27.2442 44.2827 27.418 43.926 27.418H39.1887ZM44.4564 16.6447H46.3404C48.3524 16.6447 49.3492 15.785 49.3492 14.0657C49.3492 12.3463 48.3432 11.4867 46.3404 11.4867H44.4564V16.6355V16.6447Z" fill="#000435"/>
<path d="M63.7717 27.7815C61.5677 27.7815 59.7569 26.9767 58.3393 25.3671C56.9309 23.7392 56.2176 21.709 56.2176 19.2946C56.2176 16.8802 56.9218 14.8773 58.3393 13.2494C59.7477 11.6216 61.5585 10.8076 63.7717 10.8076C65.9849 10.8076 67.5579 11.5575 68.6371 13.0482L68.7011 11.7313C68.7011 11.3746 68.8749 11.2009 69.2315 11.2009H73.3378C73.6945 11.2009 73.8683 11.3746 73.8683 11.7313V26.8487C73.8683 27.0042 73.8134 27.1322 73.7036 27.2419C73.5939 27.3334 73.4567 27.37 73.3104 27.37H69.2407C68.884 27.37 68.7102 27.1962 68.7102 26.8395L68.6462 25.486C67.4756 27.0042 65.8569 27.7632 63.7809 27.7632L63.7717 27.7815ZM62.6102 21.8096C63.2504 22.4497 64.0552 22.7698 65.0246 22.7698C65.9941 22.7698 66.7897 22.4497 67.4116 21.8096C68.0335 21.1694 68.3353 20.328 68.3353 19.2671C68.3353 18.2063 68.0243 17.4106 67.4116 16.7887C66.8171 16.1485 66.0215 15.8285 65.0246 15.8285C64.0278 15.8285 63.2504 16.1485 62.6102 16.7887C61.9701 17.4289 61.65 18.2611 61.65 19.2946C61.65 20.328 61.9701 21.1694 62.6102 21.8004V21.8096Z" fill="#000435"/>
<path d="M80.6712 33.6572C80.1865 33.6572 80.0402 33.4561 80.2414 33.0628L82.6283 27.3835L76.3363 11.7631C76.2083 11.3882 76.3454 11.2052 76.7661 11.2052H81.3663C81.6772 11.2052 81.8876 11.3333 81.9973 11.5985L85.308 20.9085L88.6552 11.5985C88.7466 11.3333 88.957 11.2052 89.2862 11.2052H93.8864C94.2796 11.2052 94.4168 11.3882 94.2796 11.7631L85.7012 33.2549C85.5915 33.5201 85.3811 33.6481 85.0702 33.6481H80.6621L80.6712 33.6572Z" fill="#000435"/>
<path d="M98.8801 27.3818C98.5508 27.3818 98.3862 27.208 98.3862 26.8514V4.80175C98.3862 4.44508 98.5508 4.27132 98.8801 4.27132H103.617C103.974 4.27132 104.148 4.44508 104.148 4.80175V26.8605C104.148 27.2172 103.974 27.3909 103.617 27.3909H98.8801V27.3818Z" fill="#000435"/>
<path d="M108.538 27.2838C108.209 27.2838 108.044 27.1101 108.044 26.7534V4.70377C108.044 4.3471 108.209 4.17334 108.538 4.17334H116.156C119.842 4.17334 122.732 5.26164 124.835 7.43825C126.93 9.61486 127.981 12.3768 127.981 15.724C127.981 19.0712 126.93 21.8331 124.835 24.0098C122.741 26.1864 119.842 27.2747 116.156 27.2747H108.538V27.2838ZM113.806 22.199H116.056C118.04 22.199 119.558 21.6502 120.592 20.5436C121.625 19.4462 122.146 17.8366 122.146 15.724C122.146 13.6114 121.625 12.0018 120.592 10.9044C119.558 9.80692 118.04 9.24905 116.056 9.24905H113.806V22.1898V22.199Z" fill="#000435"/>
<path d="M275.457 8.89499L280.214 9.16999C279.884 11.2875 279.637 14.0925 279.637 16.595C279.637 19.2075 279.939 21.6825 280.462 23.085C280.819 24.02 281.342 24.4875 282.057 24.4875C283.349 24.4875 285.522 22.2875 286.457 20.775L288.547 24.68C286.842 27.2375 283.707 29.465 280.902 29.465C278.097 29.465 276.502 27.32 275.677 22.9475C275.237 20.995 275.044 18.575 275.044 16.265C275.044 13.68 275.237 11.0675 275.457 8.89499ZM289.399 10.9025L293.662 9.27999C296.852 13.5425 298.282 18.9325 298.777 25.12L294.047 26.0275C293.827 20.8025 292.259 14.615 289.399 10.9025Z" fill="#000435"/>
<path d="M257.719 16.0725L257.829 19.84C256.839 20.1975 255.767 20.555 254.694 20.885V26.88C254.694 29.6575 253.814 30.5375 250.487 30.7575C249.607 30.84 248.507 30.8675 247.709 30.8675L246.802 27.1C247.599 27.1 248.562 27.1 249.167 27.045C250.074 26.9625 250.377 26.6875 250.377 25.78V22.095C249.084 22.425 247.819 22.7275 246.664 22.975L246.197 19.015C247.489 18.795 248.919 18.4925 250.377 18.1625V13.845H246.444V10.1325H250.377V5.7325H254.694V10.1325H257.802V13.845H254.694V17.035C255.767 16.7325 256.784 16.4025 257.719 16.0725ZM272.019 29.9875L267.674 30.7575C267.592 30.125 267.482 29.465 267.372 28.7775C263.907 29.3275 260.084 29.795 257.114 30.0425L256.592 26C256.784 26 256.977 25.9725 257.197 25.9725C259.094 19.7575 260.827 12.635 261.899 6.2L266.382 6.9425C265.254 12.855 263.577 19.62 261.679 25.56C263.357 25.395 265.062 25.1475 266.657 24.9C266.107 22.095 265.474 19.2075 264.814 16.7325L268.857 16.045C269.984 20.0875 271.304 25.78 272.019 29.9875Z" fill="#000435"/>
<path d="M241.467 24.79L241.824 29.1625C239.514 29.4925 235.747 29.7675 232.887 29.7675C226.039 29.7675 221.199 28.09 221.199 22.6175C221.199 18.0525 224.637 15.9625 227.937 14.725C227.469 12.3325 227.002 8.97749 226.782 6.41999L231.484 6.11749C231.622 7.76749 231.979 10.71 232.419 13.405C235.004 12.8275 238.194 12.305 240.532 12.03L241.192 16.2925C238.909 16.5675 234.839 17.2 232.419 17.7775C228.844 18.6575 225.874 19.895 225.874 22.48C225.874 25.065 228.542 25.5325 232.419 25.5325C235.224 25.5325 238.717 25.23 241.467 24.79Z" fill="#000435"/>
<path d="M205.964 14.065C210.364 14.065 216.029 15.495 216.029 21.9025C216.029 28.6125 210.199 30.29 205.937 30.7025L204.699 26.9625C209.677 26.5225 211.794 24.79 211.794 21.8475C211.794 20.0875 210.969 18.905 209.567 18.2175C207.422 23.085 204.039 26.9625 201.839 28.3925C200.547 29.3275 198.842 29.8775 197.192 29.8775C194.112 29.8775 191.967 27.8425 191.967 24.24C191.967 20.39 194.579 16.76 198.952 15.1925L199.034 12.47C198.952 12.47 198.897 12.47 198.814 12.47C196.889 12.47 194.854 12.47 192.984 12.3875V8.5925C195.212 8.6475 197.219 8.675 199.199 8.675H199.227C199.309 7.6575 199.392 6.64 199.474 5.6225L203.874 5.7325C203.792 6.3925 203.682 7.41 203.572 8.62C206.872 8.565 210.172 8.4275 213.774 8.1525L213.884 12.0575C210.529 12.25 206.762 12.36 203.269 12.4425L203.187 14.2575C204.012 14.1475 205.002 14.065 205.964 14.065ZM202.994 22.7C204.067 21.2975 205.194 19.455 206.157 17.475C205.909 17.4475 205.689 17.4475 205.442 17.4475C204.562 17.4475 203.654 17.5575 202.857 17.695V18.63C202.857 20.0325 202.884 21.3525 202.994 22.7ZM195.927 23.8C195.927 25.23 196.614 26.0275 197.742 26.0275C198.237 26.0275 198.787 25.89 199.364 25.6425C199.117 23.3875 199.007 21.05 198.979 18.9325C197.137 20.0875 195.927 22.04 195.927 23.8Z" fill="#000435"/>
<path d="M167.712 13.9825V6.44751H186.329V26.715C186.329 29.41 185.449 30.4275 183.057 30.7025C181.352 30.895 179.234 30.9225 178.382 30.9225L177.309 26.99C177.997 26.99 179.592 26.99 180.499 26.88C181.462 26.77 181.819 26.44 181.819 25.505V22.9475H171.589C170.984 26.0275 169.857 28.695 167.849 31.17L163.807 28.3925C167.382 23.9925 167.712 19.8675 167.712 13.9825ZM181.819 13.13V10.3525H172.222V13.13H181.819ZM172.057 19.455H181.819V16.595H172.194C172.194 17.585 172.139 18.5475 172.057 19.455Z" fill="#000435"/>
<path d="M137.187 17.0075L136.252 14.23C137.544 13.955 139.112 13.5975 140.652 13.1575C139.607 12.415 138.012 11.425 136.857 10.82L138.397 9.22499H136.884V6.14499H148.352V15.9075C148.352 17.4475 147.472 18.4925 144.337 18.795C143.044 18.905 141.504 18.9875 140.294 18.9875L139.689 16.265C140.762 16.265 141.917 16.2375 142.742 16.1825C143.869 16.1 144.144 15.8525 144.144 15.275V14.3125C142.219 15.275 139.249 16.4025 137.187 17.0075ZM149.699 16.9525L148.764 14.23C150.029 13.9825 151.652 13.57 153.247 13.1025C152.174 12.36 150.524 11.3975 149.424 10.8475L150.964 9.22499H149.452V6.14499H161.029V16.045C161.029 17.5575 160.122 18.4925 156.987 18.795C155.694 18.905 154.127 18.9875 152.944 18.9875L152.312 16.2375C153.412 16.2375 154.567 16.21 155.364 16.155C156.492 16.045 156.822 15.88 156.822 15.275V14.23C154.952 15.22 151.762 16.375 149.699 16.9525ZM144.144 9.22499H139.249C140.404 9.80249 141.862 10.6 142.824 11.2325L141.064 13.0475C142.164 12.7175 143.237 12.36 144.144 12.0025V9.22499ZM156.822 9.22499H151.817C152.972 9.77499 154.512 10.5725 155.474 11.205L153.797 12.9375C154.897 12.58 155.969 12.2225 156.822 11.8375V9.22499ZM154.897 26.8525H161.332V30.3175H136.609V26.8525H142.687C142.027 25.6975 141.229 24.6525 140.267 23.4425H137.929V20.225H146.592V18.41H151.267V20.225H160.039V23.4425H157.289C156.547 24.7075 155.777 25.7525 154.897 26.8525ZM152.587 23.4425H144.859C145.767 24.515 146.537 25.505 147.417 26.8525H150.359C151.184 25.7525 151.927 24.6525 152.587 23.4425Z" fill="#000435"/>
</svg>
